<?xml version="1.0" encoding="UTF-8" standalone="no"?>
<!DOCTYPE svg PUBLIC "-//W3C//DTD SVG 1.1//EN" "http://www.w3.org/Graphics/SVG/1.1/DTD/svg11.dtd">
<!-- Created with Vectornator (http://vectornator.io/) -->
<svg height="960.0px" stroke-miterlimit="10" style="fill-rule:nonzero;clip-rule:evenodd;stroke-linecap:round;stroke-linejoin:round;" version="1.1" viewBox="0 0 960 960" width="960.0px" xml:space="preserve" xmlns="http://www.w3.org/2000/svg" xmlns:xlink="http://www.w3.org/1999/xlink">
<defs/>
<g id="Untitled">
<path d="M200 840C178 840 159.167 832.167 143.5 816.5C127.833 800.833 120 782 120 760L120 200C120 178 127.833 159.167 143.5 143.5C159.167 127.833 178 120 200 120L367 120C374.333 96.6667 388.667 77.5 410 62.5C431.333 47.5 454.667 40 480 40C506.667 40 530.5 47.5 551.5 62.5C572.5 77.5 586.667 96.6667 594 120L760 120C782 120 800.833 127.833 816.5 143.5C832.167 159.167 840 178 840 200L840 760C840 782 832.167 800.833 816.5 816.5C800.833 832.167 782 840 760 840L200 840ZM200 760L760 760L760 200L680 200L680 320L280 320L280 200L200 200L200 760ZM480 200C491.333 200 500.833 196.167 508.5 188.5C516.167 180.833 520 171.333 520 160C520 148.667 516.167 139.167 508.5 131.5C500.833 123.833 491.333 120 480 120C468.667 120 459.167 123.833 451.5 131.5C443.833 139.167 440 148.667 440 160C440 171.333 443.833 180.833 451.5 188.5C459.167 196.167 468.667 200 480 200Z" fill="#ced9ce" fill-rule="nonzero" opacity="1" stroke="none"/>
<text fill="#ced9ce" font-family="ArialRoundedMTBold" font-size="512.685" opacity="1" stroke="none" text-anchor="start" transform="matrix(1 0 0 1 287.862 241.318)" x="0" y="0">
<tspan textLength="379.507" x="0" y="485">K</tspan>
</text>
</g>
</svg>
